<svg width="20" height="20" viewBox="0 0 20 20" fill="none" xmlns="http://www.w3.org/2000/svg">
<path fill-rule="evenodd" clip-rule="evenodd" d="M16.2518 10C16.2518 10.2834 16.2268 10.55 16.1935 10.8167L17.9518 12.1917C18.1102 12.3167 18.1518 12.5417 18.0518 12.725L16.3852 15.6084C16.3102 15.7417 16.1685 15.8167 16.0268 15.8167C15.9768 15.8167 15.9268 15.8084 15.8768 15.7917L13.8018 14.9584C13.3685 15.2834 12.9018 15.5667 12.3935 15.775L12.0768 17.9834C12.0518 18.1834 11.8768 18.3334 11.6685 18.3334H8.33515C8.12682 18.3334 7.95182 18.1834 7.92682 17.9834L7.61015 15.775C7.10182 15.5667 6.63515 15.2917 6.20182 14.9584L4.12682 15.7917C4.08515 15.8084 4.03515 15.8167 3.98515 15.8167C3.83515 15.8167 3.69349 15.7417 3.61849 15.6084L1.95182 12.725C1.85182 12.5417 1.89349 12.3167 2.05182 12.1917L3.81015 10.8167C3.77682 10.55 3.75182 10.275 3.75182 10C3.75182 9.72502 3.77682 9.45002 3.81015 9.18335L2.05182 7.80835C1.89349 7.68335 1.84349 7.45835 1.95182 7.27502L3.61849 4.39169C3.69349 4.25835 3.83515 4.18335 3.97682 4.18335C4.02682 4.18335 4.07682 4.19169 4.12682 4.20835L6.20182 5.04169C6.63515 4.71669 7.10182 4.43335 7.61015 4.22502L7.92682 2.01669C7.95182 1.81669 8.12682 1.66669 8.33515 1.66669H11.6685C11.8768 1.66669 12.0518 1.81669 12.0768 2.01669L12.3935 4.22502C12.9018 4.43335 13.3685 4.70835 13.8018 5.04169L15.8768 4.20835C15.9185 4.19169 15.9685 4.18335 16.0185 4.18335C16.1685 4.18335 16.3102 4.25835 16.3852 4.39169L18.0518 7.27502C18.1518 7.45835 18.1102 7.68335 17.9518 7.80835L16.1935 9.18335C16.2268 9.45002 16.2518 9.71669 16.2518 10ZM14.5852 10C14.5852 9.82502 14.5768 9.65002 14.5435 9.39169L14.4268 8.45002L15.1685 7.86669L16.0602 7.15835L15.4768 6.15002L14.4185 6.57502L13.5352 6.93335L12.7768 6.35002C12.4435 6.10002 12.1102 5.90835 11.7518 5.75835L10.8685 5.40002L10.7352 4.45835L10.5768 3.33335H9.4185L9.25184 4.45835L9.1185 5.40002L8.23517 5.75835C7.8935 5.90002 7.55184 6.10002 7.1935 6.36669L6.4435 6.93335L5.57684 6.58335L4.5185 6.15835L3.93517 7.16669L4.83517 7.86669L5.57684 8.45002L5.46017 9.39169C5.43517 9.64169 5.4185 9.83335 5.4185 10C5.4185 10.1667 5.43517 10.3584 5.46017 10.6167L5.57684 11.5584L4.83517 12.1417L3.93517 12.8417L4.5185 13.85L5.57684 13.425L6.46017 13.0667L7.2185 13.65C7.55184 13.9 7.88517 14.0917 8.24351 14.2417L9.12684 14.6L9.26017 15.5417L9.4185 16.6667H10.5852L10.7518 15.5417L10.8852 14.6L11.7685 14.2417C12.1102 14.1 12.4518 13.9 12.8102 13.6334L13.5602 13.0667L14.4268 13.4167L15.4852 13.8417L16.0685 12.8334L15.1685 12.1334L14.4268 11.55L14.5435 10.6084C14.5685 10.3584 14.5852 10.175 14.5852 10ZM10.0018 6.66669C8.16017 6.66669 6.6685 8.15835 6.6685 10C6.6685 11.8417 8.16017 13.3334 10.0018 13.3334C11.8435 13.3334 13.3352 11.8417 13.3352 10C13.3352 8.15835 11.8435 6.66669 10.0018 6.66669ZM8.33517 10C8.33517 10.9167 9.08517 11.6667 10.0018 11.6667C10.9185 11.6667 11.6685 10.9167 11.6685 10C11.6685 9.08335 10.9185 8.33335 10.0018 8.33335C9.08517 8.33335 8.33517 9.08335 8.33517 10Z" fill="black"/>
</svg>
