<svg width="20" height="13" viewBox="0 0 20 13" fill="none" xmlns="http://www.w3.org/2000/svg">
<path fill-rule="evenodd" clip-rule="evenodd" d="M0.833252 6.33331C2.27492 2.67498 5.83325 0.083313 9.99992 0.083313C14.1666 0.083313 17.7249 2.67498 19.1666 6.33331C17.7249 9.99165 14.1666 12.5833 9.99992 12.5833C5.83325 12.5833 2.27492 9.99165 0.833252 6.33331ZM17.3499 6.33331C15.9749 3.52498 13.1583 1.74998 9.99993 1.74998C6.8416 1.74998 4.02493 3.52498 2.64993 6.33331C4.02493 9.14165 6.8416 10.9166 9.99993 10.9166C13.1583 10.9166 15.9749 9.14165 17.3499 6.33331ZM9.99992 4.24998C11.1499 4.24998 12.0833 5.18331 12.0833 6.33331C12.0833 7.48331 11.1499 8.41665 9.99992 8.41665C8.84992 8.41665 7.91659 7.48331 7.91659 6.33331C7.91659 5.18331 8.84992 4.24998 9.99992 4.24998ZM6.24992 6.33331C6.24992 4.26665 7.93325 2.58331 9.99992 2.58331C12.0666 2.58331 13.7499 4.26665 13.7499 6.33331C13.7499 8.39998 12.0666 10.0833 9.99992 10.0833C7.93325 10.0833 6.24992 8.39998 6.24992 6.33331Z" fill="black"/>
</svg>
